<svg width="329" height="180" viewBox="0 0 329 180" fill="none" xmlns="http://www.w3.org/2000/svg">
<rect x="1" y="1" width="327" height="178" rx="29" fill="#141414" stroke="#E8E3D5" stroke-width="2"/>
<path d="M269.49 108.064C276.01 108.064 279.312 103.937 279.312 95.6831C279.312 87.4294 276.01 83.3847 269.49 83.3847C262.969 83.3847 259.669 87.4294 259.669 95.6831C259.669 103.937 262.971 108.064 269.49 108.064ZM269.49 117.06C256.367 117.06 248.608 108.311 248.608 95.6831C248.608 83.055 256.614 74.3062 269.49 74.3062C282.365 74.3062 290.123 82.7253 290.123 95.6831C290.123 108.641 282.118 117.06 269.49 117.06Z" fill="#E8E3D5"/>
<path d="M247.196 117.057H236.467V61.5933H247.196V117.057Z" fill="#E8E3D5"/>
<path d="M224.243 100.554L224.325 96.0973C223.253 97.1698 221.354 97.7483 217.393 98.491C211.285 99.6468 209.305 101.38 209.305 104.846C209.305 107.901 211.12 109.386 214.504 109.386C220.034 109.386 224.161 105.341 224.243 100.555V100.554ZM235.055 117.06H224.407C224.407 116.133 224.491 113.594 224.407 112.356C221.848 115.161 217.557 117.06 212.11 117.06C202.866 117.06 198.574 112.52 198.574 105.917C198.574 94.1976 206.415 92.8763 217.228 91.3908C222.592 90.6481 224.078 89.5756 224.078 86.7688C224.078 84.1275 221.436 82.5598 217.228 82.5598C212.358 82.5598 210.377 84.9536 209.882 88.5852H199.895C200.061 80.1661 204.683 74.3062 217.723 74.3062C230.762 74.3062 235.055 80.084 235.055 90.3183V115.986V117.06Z" fill="#E8E3D5"/>
<path d="M197.161 117.057H186.432V76.4496H197.161V117.057ZM197.161 71.58H186.432V61.5933H197.161V71.58Z" fill="#E8E3D5"/>
<path d="M166.285 71.713H151.511V86.3218H165.872C171.979 86.3218 174.291 83.2686 174.291 79.0585C174.291 74.8483 171.98 71.713 166.285 71.713ZM183.533 117.025H172.309V102.911C172.309 97.6287 170.328 95.5658 163.726 95.5658H151.511V117.025H140.368V61.5151H168.182C178.334 61.5151 185.019 68.9896 185.019 78.0681C185.019 83.9281 182.13 88.8798 176.848 90.7784C181.717 92.346 183.532 95.0707 183.532 101.508V117.025H183.533Z" fill="#E8E3D5"/>
<path d="M94.3926 98.7476C91.8792 98.6061 89.1194 97.639 87.4391 95.7365C85.1021 93.1961 84.2749 89.0679 85.6921 85.8634C87.9521 80.7535 92.0641 79.713 96.3995 80.0161C99.6302 80.0161 106.847 80.097 110.604 80.097C111.833 80.0796 112.909 80.1547 114.005 80.0161C116.53 79.7505 118.91 78.0995 120.26 75.8882C122.829 72.0025 121.837 66.2759 118.236 63.6562C116.689 62.5304 114.829 62.0194 112.923 61.875C111.972 61.7798 111.014 61.673 110.112 61.3987C107.257 60.5471 104.963 58.1003 104.023 55.2943C103.508 53.8335 103.528 52.2486 103.265 50.7359C102.658 47.0927 99.8379 44.2982 96.1735 43.4697C95.3376 43.2734 94.5452 43.129 93.77 43.1232C84.888 43.0944 70.5789 43.0106 67.2355 43.002C62.7959 42.9096 58.5559 46.0505 57.7779 50.4905C56.8726 54.7948 59.4785 59.3965 63.5942 60.8428C65.049 61.3856 66.2348 61.5039 67.8197 61.4866C72.6729 61.5328 72.3674 61.6483 75.0254 61.6743C78.444 61.5646 82.1606 63.2274 83.812 66.2759C87.4187 72.9302 82.2878 80.0174 74.9387 79.7576C65.8483 79.7778 61.8705 79.7461 50.961 79.7547C49.0839 79.7692 47.6378 79.6479 45.8591 80.1242C40.7427 81.3252 37.6336 87.226 39.5395 92.1394C40.6849 95.3785 43.7188 97.7168 47.1432 98.1354C51.418 98.4126 59.5519 98.1672 70.3458 98.2451C72.8302 98.2451 74.6494 98.2451 75.3725 98.2451C76.0695 98.2394 76.7232 98.3202 77.4751 98.4703C82.0622 99.2411 85.1945 103.704 84.9313 108.228C84.9313 111.279 84.9313 120.624 84.9313 125.281C84.9227 126.958 85.2235 128.684 86.0911 130.315C88.5756 135.151 95.274 136.692 99.6442 133.384C102.947 130.962 103.661 127.437 103.473 123.618C103.468 119.735 103.479 113.107 103.473 108.808C103.847 103.101 99.8551 98.9204 94.4533 98.7591L94.3955 98.7533L94.3926 98.7476Z" fill="#BBEBE1"/>
</svg>
